<svg width="19" height="17" viewBox="0 0 19 17" fill="none" xmlns="http://www.w3.org/2000/svg">
<path d="M18.3494 6.89074L11.8444 0.222939C11.5549 -0.0738258 11.085 -0.0743561 10.7947 0.221611C10.5045 0.517616 10.5039 0.998146 10.7934 1.29487L17.2991 7.9634C17.5885 8.25929 17.5885 8.74077 17.2985 9.0373L10.7934 15.7051C10.504 16.0019 10.5045 16.4824 10.7947 16.7784C10.9396 16.9262 11.1293 17 11.3189 17C11.5092 17 11.6994 16.9257 11.8445 16.777L18.3488 10.1099C19.217 9.22221 19.217 7.77777 18.3494 6.89074Z" fill="white"/>
<path d="M14.2136 7.74106H0.742226C0.332278 7.74106 0 8.08085 0 8.49999C0 8.91912 0.332278 9.25892 0.742226 9.25892H14.2136C14.6236 9.25892 14.9558 8.91916 14.9558 8.49999C14.9558 8.08081 14.6236 7.74106 14.2136 7.74106Z" fill="white"/>
<path d="M14.2136 7.74106H0.742226C0.332278 7.74106 0 8.08085 0 8.49999C0 8.91912 0.332278 9.25892 0.742226 9.25892H14.2136C14.6236 9.25892 14.9558 8.91916 14.9558 8.49999C14.9558 8.08081 14.6236 7.74106 14.2136 7.74106Z" fill="white"/>
</svg>
