<svg width="19" height="17" viewBox="0 0 19 17" fill="none" xmlns="http://www.w3.org/2000/svg">
<path d="M0.650553 6.89074L7.15559 0.222939C7.44511 -0.0738258 7.91503 -0.0743561 8.20526 0.221611C8.49546 0.517616 8.49605 0.998146 8.20656 1.29487L1.70086 7.9634C1.41152 8.25929 1.41152 8.74077 1.70153 9.0373L8.20656 15.7051C8.49602 16.0019 8.49546 16.4824 8.20526 16.7784C8.06039 16.9262 7.87069 17 7.68106 17C7.49083 17 7.30057 16.9257 7.15555 16.777L0.651184 10.1099C-0.216955 9.22221 -0.216957 7.77777 0.650553 6.89074Z" fill="#5AC1A8"/>
<path d="M4.78638 7.74106H18.2578C18.6677 7.74106 19 8.08085 19 8.49999C19 8.91912 18.6677 9.25892 18.2578 9.25892H4.78638C4.37644 9.25892 4.04416 8.91916 4.04416 8.49999C4.04416 8.08081 4.37644 7.74106 4.78638 7.74106Z" fill="#5AC1A8"/>
<path d="M4.78638 7.74106H18.2578C18.6677 7.74106 19 8.08085 19 8.49999C19 8.91912 18.6677 9.25892 18.2578 9.25892H4.78638C4.37644 9.25892 4.04416 8.91916 4.04416 8.49999C4.04416 8.08081 4.37644 7.74106 4.78638 7.74106Z" fill="#5AC1A8"/>
</svg>
