<svg width="16" height="16" viewBox="0 0 16 16" fill="none" xmlns="http://www.w3.org/2000/svg">
<path d="M4.19103 5.45844H1.32962C1.20262 5.45844 1.09972 5.56138 1.09972 5.68833V14.8808C1.09972 15.0078 1.20262 15.1107 1.32962 15.1107H4.19103C4.31802 15.1107 4.42093 15.0078 4.42093 14.8808V5.68833C4.42093 5.56138 4.31802 5.45844 4.19103 5.45844Z" fill="white"/>
<path d="M2.76122 0.888672C1.72007 0.888672 0.873047 1.73478 0.873047 2.77478C0.873047 3.81524 1.72007 4.66166 2.76122 4.66166C3.80154 4.66166 4.64788 3.81519 4.64788 2.77478C4.64793 1.73478 3.80154 0.888672 2.76122 0.888672Z" fill="white"/>
<path d="M11.4693 5.23009C10.32 5.23009 9.47047 5.72413 8.95518 6.28549V5.68845C8.95518 5.5615 8.85228 5.45856 8.72528 5.45856H5.98498C5.85798 5.45856 5.75508 5.5615 5.75508 5.68845V14.881C5.75508 15.0079 5.85798 15.1108 5.98498 15.1108H8.84014C8.96713 15.1108 9.07003 15.0079 9.07003 14.881V10.3328C9.07003 8.80018 9.48633 8.20309 10.5547 8.20309C11.7182 8.20309 11.8107 9.16028 11.8107 10.4117V14.881C11.8107 15.008 11.9136 15.1109 12.0406 15.1109H14.8968C15.0238 15.1109 15.1267 15.008 15.1267 14.881V9.83875C15.1267 7.5598 14.6922 5.23009 11.4693 5.23009Z" fill="white"/>
</svg>
