<svg width="14" height="18" viewBox="0 0 14 18" fill="none" xmlns="http://www.w3.org/2000/svg">
<path d="M4.17426 0.000449176C3.7642 -0.0112586 3.47699 0.204497 3.17766 0.813297C3.00464 1.22307 2.96312 1.67298 2.96312 2.1647C3.09115 2.69656 3.21919 3.22843 3.39048 3.76029C3.63963 4.4962 4.18118 6.02489 4.5947 7.19733C4.61719 7.20737 4.63968 7.21573 4.67429 7.23078C4.83866 7.32946 4.9044 7.38298 4.97707 7.44487C5.06185 7.51679 5.15701 7.61045 5.2539 7.71247C5.34042 7.52682 5.47191 7.35121 5.6605 7.19733C6.17264 6.86952 6.77302 7.07524 7.33015 7.07524C7.33015 7.07524 7.59833 7.10033 7.92879 7.13043C7.45645 5.74558 6.61384 3.18327 6.07056 2.14463C5.77123 1.57095 5.47191 1.03909 5.08781 0.549038C4.91652 0.303176 4.70197 0.099128 4.35939 0.0171742C4.29537 0.00713929 4.23309 0.000449176 4.17426 0.000449176ZM12.2007 0.485482C11.9359 0.507225 11.6453 0.657752 11.3459 0.923684C11.2612 1.00564 11.1314 1.08759 11.0881 1.20969C10.6175 1.74155 10.2749 2.39718 9.97562 3.011C9.46175 3.95263 8.71258 5.9881 8.37 7.01168C8.35442 7.06688 8.33193 7.11538 8.3129 7.1689C8.60011 7.19566 8.8856 7.22409 9.04131 7.23915C9.51885 7.28932 10.7334 7.43818 11.5743 7.55525C11.9204 6.60024 12.4948 5.03141 12.7682 4.25201C12.981 3.55624 13.1955 2.86047 13.282 2.1647C13.3236 1.67298 13.2371 1.22307 12.8945 0.813297C12.7024 0.569108 12.4654 0.463739 12.2007 0.485482ZM3.73998 7.61881C3.69326 7.61714 3.64482 7.62048 3.59291 7.63052C3.13787 7.71247 2.75376 7.97506 2.44925 8.30287C2.42849 8.32462 2.41292 8.34803 2.39388 8.36977C2.28488 8.5387 2.22086 8.71264 2.23124 8.86652V8.90666C2.23124 9.22276 2.36101 9.35657 2.44579 9.56229C2.74511 10.1326 3.34549 10.8702 4.00124 11.5693C4.03238 11.6011 4.06353 11.6329 4.09294 11.6647C4.27461 11.8553 4.45974 12.046 4.64314 12.2333C4.95631 12.531 5.31446 13.0261 5.81968 12.8137C6.13631 12.6782 6.44947 12.3353 6.56194 12.0192C6.58616 11.9573 6.59827 11.8955 6.59827 11.8336C6.59827 11.1495 5.06012 8.82136 4.503 8.12559C4.30229 7.87471 4.07045 7.62717 3.73998 7.61881ZM7.28689 7.73087C6.98757 7.73087 6.72977 7.73087 6.43044 7.81115C6.2159 7.8931 6.04461 8.01687 6.04461 8.26106C6.0273 8.46344 6.05672 8.64741 6.11381 8.81968C6.20033 8.95516 6.2851 9.099 6.36815 9.24785C6.43736 9.3181 6.51003 9.38834 6.60173 9.45023C6.90106 9.65428 7.28689 9.77637 7.67099 9.85833C8.52917 10.0222 9.42715 10.0222 10.3269 10.0222C10.5397 10.0222 10.7127 10.0222 10.9272 10.064C11.14 10.1042 11.1833 10.2681 11.2266 10.4721C11.2681 10.636 11.14 10.718 11.012 10.7598C10.7559 10.8819 10.5397 10.9639 10.2836 11.0441C9.25586 11.4138 8.48592 12.0677 7.92879 12.9692C7.54296 13.6232 7.41493 14.319 7.71598 15.0565C7.80076 15.2188 7.84402 15.3827 7.88554 15.5867C7.9288 15.7523 7.97205 15.9564 7.92879 16.1604C7.50144 16.0785 7.24364 15.8744 7.03082 15.5466C6.85953 15.2188 6.77302 14.8508 6.72977 14.4829C6.68824 14.2788 6.68651 14.0731 6.68651 13.869C6.71592 13.6148 6.75572 13.4058 6.80416 13.2251C6.68132 13.3489 6.54117 13.4676 6.36642 13.5663C6.14842 13.7051 5.81968 13.7202 5.54112 13.6968C5.56361 13.7436 5.5861 13.7904 5.60514 13.8356C5.60514 13.9175 5.64839 13.9577 5.64839 13.9995C5.77643 14.4912 5.56188 14.9411 5.13452 15.2271C4.79194 15.473 4.36458 15.4713 3.97875 15.391C3.29359 15.2271 2.66899 14.7873 2.24163 14.2554C2.02708 13.9694 1.81254 13.6416 1.77101 13.3154C1.64125 12.9876 1.64125 12.8237 1.85579 12.6197C1.89732 12.6999 1.98383 12.7418 2.02708 12.822C2.2399 13.0679 2.41119 13.3154 2.62573 13.5596C2.8818 13.8473 3.25033 14.1634 3.59291 14.2855C3.89224 14.4076 4.15004 14.4076 4.44936 14.2855C4.70543 14.1634 4.74869 13.9995 4.70716 13.7536C4.66391 13.6717 4.62065 13.5897 4.5774 13.5094C4.27807 12.9358 3.89224 12.4039 3.42162 11.9523C3.16555 11.7081 2.02189 10.4537 1.30732 10.7882C0.81075 11.0943 0.487202 11.566 0.393771 12.1915C0.308992 12.8873 0.393771 13.5011 0.608316 14.155C1.03741 15.4646 2.4925 16.8963 3.9476 17.47C5.06012 17.9199 6.21763 18.0838 7.41493 17.96C8.2731 17.9199 9.12782 17.6757 9.89776 17.3061C11.4394 16.5702 12.4671 15.3827 13.109 13.869C13.4101 13.1331 13.5814 12.3136 13.6229 11.4957C13.6298 11.4037 13.6333 11.3118 13.6367 11.2214C13.6367 10.9622 13.6367 10.519 13.6125 10.1192C13.5952 9.96537 13.5692 9.80815 13.5381 9.6526C13.507 9.52215 13.4689 9.39169 13.4256 9.2629C13.2941 9.01537 13.1038 8.80296 12.8287 8.6725C12.6142 8.59055 12.4446 8.50859 12.2301 8.42664C10.903 7.97506 8.65721 7.85296 7.28689 7.73087ZM7.03947 10.5541C7.20211 10.8033 7.36648 11.0559 7.41666 11.3937C7.44261 11.566 7.44434 11.8603 7.36994 12.1882C7.41147 12.1363 7.45472 12.0828 7.50144 12.0259C7.84228 11.5359 8.31463 11.2081 8.82677 10.8401C8.19525 10.8016 7.60006 10.7247 7.03947 10.5541Z" fill="white"/>
</svg>
