<svg width="1920" height="4275" viewBox="0 0 1920 4275" fill="none" xmlns="http://www.w3.org/2000/svg">
<g filter="url(#filter0_df_101_2)">
<path d="M66.7631 2054.93L281.515 2240.39C284.9 2243.31 286.445 2247.84 285.598 2252.24L231.767 2531.67C230.92 2536.07 227.788 2539.7 223.555 2541.18L-45.0599 2635.12C-49.2925 2636.6 -53.9979 2635.73 -57.3835 2632.81L-272.135 2447.35C-275.521 2444.42 -277.065 2439.89 -276.218 2435.49L-222.388 2156.06C-221.541 2151.66 -218.408 2148.03 -214.175 2146.55L54.4395 2052.61C58.6721 2051.13 63.3775 2052 66.7631 2054.93Z" fill="#FE9C42" fill-opacity="0.04" shape-rendering="crispEdges"/>
</g>
<g filter="url(#filter1_df_101_2)">
<path d="M1765.76 4171.81L1980.51 3986.35C1983.9 3983.42 1985.44 3978.89 1984.6 3974.49L1930.77 3695.06C1929.92 3690.66 1926.79 3687.03 1922.55 3685.55L1653.94 3591.61C1649.71 3590.13 1645 3591 1641.62 3593.93L1426.86 3779.39C1423.48 3782.31 1421.93 3786.84 1422.78 3791.24L1476.61 4070.67C1477.46 4075.08 1480.59 4078.7 1484.82 4080.18L1753.44 4174.12C1757.67 4175.6 1762.38 4174.73 1765.76 4171.81Z" fill="#FE9C42" fill-opacity="0.04" shape-rendering="crispEdges"/>
</g>
<g filter="url(#filter2_df_101_2)">
<path d="M1851.79 1084.92L1499.09 1389.52C1493.53 1394.32 1490.99 1401.76 1492.38 1408.99L1580.79 1867.91C1582.18 1875.14 1587.33 1881.1 1594.28 1883.53L2035.44 2037.82C2042.39 2040.24 2050.12 2038.82 2055.68 2034.02L2408.38 1729.42C2413.94 1724.62 2416.48 1717.18 2415.09 1709.95L2326.68 1251.03C2325.28 1243.8 2320.14 1237.84 2313.19 1235.41L1872.03 1081.13C1865.08 1078.7 1857.35 1080.12 1851.79 1084.92Z" fill="#FE9C42" fill-opacity="0.06" shape-rendering="crispEdges"/>
</g>
<g filter="url(#filter3_df_101_2)">
<path d="M-22.3847 2558.39L-22.3846 2558.39L19.2415 2548.93C19.7258 2548.83 20.2277 2548.98 20.5575 2549.34L49.3039 2580.58C49.6336 2580.94 49.7463 2581.45 49.5967 2581.92C49.5967 2581.92 49.5967 2581.92 49.5967 2581.92L36.7213 2622.62L36.7212 2622.62C36.5721 2623.09 36.182 2623.45 35.6993 2623.56L35.6992 2623.56L-5.92694 2633.02C-6.41121 2633.13 -6.91313 2632.97 -7.24289 2632.61L-35.9893 2601.37C-36.319 2601.01 -36.4318 2600.5 -36.2821 2600.03L-23.4067 2559.33L-23.4067 2559.33C-23.2575 2558.86 -22.8674 2558.5 -22.3847 2558.39Z" stroke="#FE9C42" shape-rendering="crispEdges"/>
</g>
<g filter="url(#filter4_df_101_2)">
<path d="M1823.21 3952.72L1823.21 3952.72L1845.91 3957.88C1845.91 3957.88 1845.91 3957.88 1845.91 3957.88C1846.1 3957.92 1846.29 3957.86 1846.41 3957.73L1862.09 3940.69C1862.22 3940.55 1862.26 3940.36 1862.2 3940.18C1862.2 3940.18 1862.2 3940.18 1862.2 3940.18L1855.18 3917.98L1855.18 3917.98C1855.12 3917.8 1854.97 3917.66 1854.79 3917.62L1854.79 3917.62L1832.08 3912.46C1832.08 3912.46 1832.08 3912.46 1832.08 3912.46C1831.9 3912.42 1831.71 3912.48 1831.58 3912.61L1815.9 3929.65C1815.78 3929.79 1815.73 3929.98 1815.79 3930.16C1815.79 3930.16 1815.79 3930.16 1815.79 3930.16L1822.81 3952.36L1822.81 3952.36C1822.87 3952.54 1823.02 3952.68 1823.21 3952.72Z" stroke="#FE9C42" shape-rendering="crispEdges"/>
</g>
<g filter="url(#filter5_df_101_2)">
<path d="M1781.58 2109.25L1781.58 2109.25L1701.61 2091.08C1701.61 2091.08 1701.61 2091.08 1701.61 2091.08C1700.52 2090.84 1699.39 2091.18 1698.64 2092L1643.42 2152.01C1642.67 2152.82 1642.42 2153.98 1642.76 2155.04C1642.76 2155.04 1642.76 2155.04 1642.76 2155.04L1667.49 2233.23L1667.49 2233.23C1667.83 2234.29 1668.71 2235.1 1669.79 2235.34L1669.79 2235.34L1749.76 2253.51C1750.85 2253.75 1751.98 2253.41 1752.73 2252.6L1807.95 2192.58C1808.7 2191.77 1808.95 2190.61 1808.62 2189.55L1783.88 2111.36L1783.88 2111.36C1783.54 2110.3 1782.67 2109.49 1781.58 2109.25ZM1781.69 2108.76L1781.69 2108.76L1781.69 2108.76Z" stroke="#FE9C42" shape-rendering="crispEdges"/>
</g>
<g filter="url(#filter6_df_101_2)">
<path d="M-154.713 681.564L-419.763 910.464C-423.942 914.072 -425.848 919.662 -424.803 925.096L-358.364 1269.97C-357.318 1275.41 -353.452 1279.88 -348.228 1281.71L-16.6987 1397.65C-11.4748 1399.48 -5.66723 1398.41 -1.48878 1394.8L263.562 1165.9C267.74 1162.29 269.647 1156.7 268.601 1151.27L202.162 806.388C201.117 800.954 197.251 796.478 192.027 794.652L-139.503 678.709C-144.727 676.883 -150.534 677.956 -154.713 681.564Z" fill="#FE9C42" fill-opacity="0.06" shape-rendering="crispEdges"/>
</g>
<g filter="url(#filter7_df_101_2)">
<path d="M55.5304 1030.98L55.5305 1030.98L71.4353 971.989C71.4353 971.989 71.4353 971.989 71.4353 971.989C71.6398 971.23 71.4268 970.421 70.876 969.87L27.8006 926.795C27.2498 926.244 26.4411 926.031 25.6819 926.235C25.6818 926.235 25.6818 926.235 25.6818 926.235L-33.3049 942.14L-33.3051 942.14C-34.0625 942.344 -34.6556 942.937 -34.8597 943.695L-34.8597 943.695L-50.7645 1002.68C-50.969 1003.44 -50.756 1004.25 -50.2052 1004.8L-7.1298 1047.88C-6.57901 1048.43 -5.7702 1048.64 -5.011 1048.44L53.9757 1032.53L53.9758 1032.53C54.7332 1032.33 55.3264 1031.73 55.5304 1030.98Z" stroke="#FE9C42" shape-rendering="crispEdges"/>
</g>
<g filter="url(#filter8_d_101_2)">
<path d="M90.1097 1126.99L81.6198 1134.32C81.486 1134.44 81.4249 1134.62 81.4584 1134.79L83.5865 1145.84C83.62 1146.01 83.7438 1146.15 83.9112 1146.21L94.5304 1149.93C94.6977 1149.99 94.8838 1149.95 95.0176 1149.84L103.507 1142.5C103.641 1142.39 103.702 1142.21 103.669 1142.04L101.541 1130.99C101.507 1130.81 101.383 1130.67 101.216 1130.61L90.5969 1126.9C90.4295 1126.84 90.2435 1126.87 90.1097 1126.99Z" fill="#FE9C42"/>
</g>
<g filter="url(#filter9_d_101_2)">
<path d="M1855.49 2308.32L1844.16 2318.1C1843.98 2318.25 1843.9 2318.49 1843.95 2318.73L1846.78 2333.46C1846.83 2333.69 1846.99 2333.88 1847.22 2333.96L1861.38 2338.91C1861.6 2338.99 1861.85 2338.95 1862.03 2338.79L1873.35 2329.01C1873.53 2328.86 1873.61 2328.62 1873.57 2328.39L1870.73 2313.65C1870.69 2313.42 1870.52 2313.23 1870.3 2313.15L1856.13 2308.2C1855.91 2308.12 1855.66 2308.17 1855.49 2308.32Z" fill="#FE9C42"/>
</g>
<g filter="url(#filter10_df_101_2)">
<path d="M6.85953 3734.89L6.85964 3734.89L59.0567 3749.14C59.7093 3749.32 60.2148 3749.83 60.3822 3750.47L73.9025 3802.56C74.0698 3803.2 73.8755 3803.89 73.3921 3804.36C73.3921 3804.36 73.392 3804.36 73.392 3804.36L34.7173 3842.2L34.7172 3842.2C34.235 3842.68 33.5355 3842.86 32.8845 3842.68L32.8844 3842.68L-19.3127 3828.43C-19.9653 3828.25 -20.4708 3827.74 -20.6382 3827.1L-34.1585 3775.01C-34.3259 3774.37 -34.1315 3773.68 -33.648 3773.2L5.02668 3735.36L5.02676 3735.36C5.50904 3734.89 6.20852 3734.71 6.85953 3734.89Z" stroke="#FE9C42" shape-rendering="crispEdges"/>
</g>
<g filter="url(#filter11_d_101_2)">
<path d="M110.413 3921.34L102.522 3934.05C102.398 3934.25 102.175 3934.37 101.939 3934.36L86.9423 3933.86C86.706 3933.85 86.4913 3933.71 86.3795 3933.51L79.2752 3920.29C79.1634 3920.08 79.1699 3919.83 79.2943 3919.63L87.1851 3906.92C87.3095 3906.72 87.5326 3906.6 87.7689 3906.61L102.765 3907.11C103.001 3907.12 103.216 3907.25 103.328 3907.46L110.432 3920.68C110.544 3920.88 110.538 3921.14 110.413 3921.34Z" fill="#FE9C42"/>
</g>
<g filter="url(#filter12_df_101_2)">
<path d="M1756.49 4096.5L1774.59 4143.37C1774.88 4144.11 1774.74 4144.95 1774.24 4145.57L1742.55 4184.74C1742.05 4185.35 1741.26 4185.66 1740.48 4185.54L1690.68 4177.84C1689.9 4177.72 1689.24 4177.19 1688.95 4176.45L1670.85 4129.58C1670.56 4128.84 1670.7 4128.01 1671.2 4127.39L1702.89 4088.22C1703.39 4087.6 1704.18 4087.29 1704.97 4087.41L1754.76 4095.12C1755.54 4095.24 1756.21 4095.77 1756.49 4096.5Z" fill="#FE9C42"/>
</g>
<path d="M854.596 291.91L1274.67 -164.583C1281.29 -171.779 1291.3 -174.83 1300.89 -172.656L1909.17 -34.4946C1918.75 -32.32 1926.49 -25.2003 1929.45 -15.8293L2117.6 578.894C2120.56 588.265 2118.36 598.5 2111.73 605.696L1691.66 1062.19C1685.04 1069.39 1675.02 1072.44 1665.44 1070.26L1057.16 932.101C1047.57 929.926 1039.84 922.806 1036.87 913.435L848.726 318.712C845.764 309.341 847.973 299.106 854.596 291.91Z" fill="url(#paint0_linear_101_2)" fill-opacity="0.14"/>
<g filter="url(#filter13_df_101_2)">
<path d="M1745.04 680.737L1736.27 671.194C1736.13 671.043 1735.92 670.979 1735.72 671.025L1723.01 673.913C1722.81 673.959 1722.65 674.108 1722.59 674.304L1718.65 686.737C1718.59 686.933 1718.64 687.147 1718.78 687.298L1727.55 696.842C1727.69 696.992 1727.9 697.056 1728.1 697.01L1740.81 694.122C1741.01 694.076 1741.17 693.928 1741.23 693.732L1745.16 681.298C1745.23 681.102 1745.18 680.888 1745.04 680.737Z" fill="#FE9C42"/>
</g>
<g filter="url(#filter14_df_101_2)">
<path d="M1722.32 75.6486L1722.32 75.6486L1691.71 86.7298C1691.39 86.8445 1691.16 87.1164 1691.11 87.4396L1685.53 119.328C1685.47 119.652 1685.6 119.985 1685.85 120.2C1685.85 120.2 1685.85 120.2 1685.85 120.2L1710.88 141.013L1710.88 141.013C1711.14 141.227 1711.49 141.289 1711.81 141.175L1711.81 141.175L1742.42 130.094C1742.73 129.979 1742.96 129.707 1743.02 129.384L1748.6 97.4951C1748.65 97.172 1748.53 96.8387 1748.27 96.6232C1748.27 96.6232 1748.27 96.6232 1748.27 96.6232L1723.24 75.8108L1723.24 75.8107C1722.99 75.5963 1722.63 75.5344 1722.32 75.6486Z" stroke="#FE9C42" shape-rendering="crispEdges"/>
</g>
<g filter="url(#filter15_df_101_2)">
<path d="M1842.43 279.724L1836.19 272.947C1836.09 272.84 1835.94 272.795 1835.8 272.827L1826.77 274.878C1826.63 274.91 1826.51 275.016 1826.47 275.155L1823.68 283.984C1823.63 284.123 1823.66 284.275 1823.76 284.382L1830 291.159C1830.1 291.266 1830.25 291.311 1830.39 291.279L1839.42 289.228C1839.56 289.195 1839.68 289.09 1839.72 288.951L1842.51 280.122C1842.56 279.983 1842.52 279.831 1842.43 279.724Z" fill="#FE9C42"/>
</g>
<g filter="url(#filter16_df_101_2)">
<path d="M900.869 -21.9639L928.607 1.9911C929.045 2.36875 929.244 2.9537 929.135 3.52239L922.182 39.6148C922.072 40.1835 921.668 40.652 921.121 40.8431L886.425 52.9769C885.879 53.1679 885.271 53.0557 884.834 52.6781L857.095 28.7231C856.658 28.3454 856.458 27.7605 856.568 27.1918L863.521 -8.90069C863.63 -9.46938 864.035 -9.93788 864.582 -10.1289L899.277 -22.2627C899.824 -22.4538 900.432 -22.3416 900.869 -21.9639Z" fill="#FE9C42"/>
</g>
<g filter="url(#filter17_df_101_2)">
<path d="M790.923 108.86L790.923 108.86L793.994 92.9193C794.009 92.8413 793.981 92.7641 793.925 92.7159L781.674 82.1359C781.618 82.0877 781.538 82.0713 781.463 82.0975L766.139 87.4565L766.139 87.4565C766.066 87.4821 766.011 87.5452 765.997 87.6214L765.997 87.6216L762.926 103.562C762.911 103.64 762.939 103.717 762.995 103.766L775.246 114.346C775.301 114.394 775.382 114.41 775.457 114.384L790.78 109.025L790.78 109.025C790.854 108.999 790.908 108.936 790.923 108.86Z" stroke="#FE9C42" shape-rendering="crispEdges"/>
</g>
<g filter="url(#filter18_d_101_2)">
<path d="M1014.11 836.99L1005.62 844.322C1005.49 844.437 1005.43 844.616 1005.46 844.791L1007.59 855.837C1007.62 856.011 1007.74 856.155 1007.91 856.213L1018.53 859.927C1018.7 859.986 1018.88 859.951 1019.02 859.836L1027.51 852.504C1027.64 852.388 1027.7 852.209 1027.67 852.035L1025.54 840.988C1025.51 840.814 1025.38 840.671 1025.22 840.612L1014.6 836.898C1014.43 836.84 1014.24 836.874 1014.11 836.99Z" fill="#FE9C42"/>
</g>
<g filter="url(#filter19_df_101_2)">
<path d="M874.891 773.415L857.958 755.014C857.691 754.724 857.287 754.601 856.901 754.688L832.381 760.258C831.994 760.346 831.682 760.633 831.563 761.01L823.979 784.984C823.859 785.362 823.948 785.774 824.215 786.064L841.149 804.466C841.415 804.756 841.819 804.879 842.206 804.791L866.726 799.222C867.112 799.134 867.424 798.847 867.544 798.47L875.128 774.496C875.247 774.118 875.158 773.706 874.891 773.415Z" fill="#FE9C42"/>
</g>
<defs>
<filter id="filter0_df_101_2" x="-376.447" y="1951.9" width="762.273" height="783.926" filterUnits="userSpaceOnUse" color-interpolation-filters="sRGB">
<feFlood flood-opacity="0" result="BackgroundImageFix"/>
<feColorMatrix in="SourceAlpha" type="matrix" values="0 0 0 0 0 0 0 0 0 0 0 0 0 0 0 0 0 0 127 0" result="hardAlpha"/>
<feOffset dx="4" dy="4"/>
<feGaussianBlur stdDeviation="10"/>
<feComposite in2="hardAlpha" operator="out"/>
<feColorMatrix type="matrix" values="0 0 0 0 0.996078 0 0 0 0 0.611765 0 0 0 0 0.258824 0 0 0 0.3 0"/>
<feBlend mode="normal" in2="BackgroundImageFix" result="effect1_dropShadow_101_2"/>
<feBlend mode="normal" in="SourceGraphic" in2="effect1_dropShadow_101_2" result="shape"/>
<feGaussianBlur stdDeviation="50" result="effect2_foregroundBlur_101_2"/>
</filter>
<filter id="filter1_df_101_2" x="1322.55" y="3490.9" width="762.273" height="783.926" filterUnits="userSpaceOnUse" color-interpolation-filters="sRGB">
<feFlood flood-opacity="0" result="BackgroundImageFix"/>
<feColorMatrix in="SourceAlpha" type="matrix" values="0 0 0 0 0 0 0 0 0 0 0 0 0 0 0 0 0 0 127 0" result="hardAlpha"/>
<feOffset dx="4" dy="4"/>
<feGaussianBlur stdDeviation="10"/>
<feComposite in2="hardAlpha" operator="out"/>
<feColorMatrix type="matrix" values="0 0 0 0 0.996078 0 0 0 0 0.611765 0 0 0 0 0.258824 0 0 0 0.3 0"/>
<feBlend mode="normal" in2="BackgroundImageFix" result="effect1_dropShadow_101_2"/>
<feBlend mode="normal" in="SourceGraphic" in2="effect1_dropShadow_101_2" result="shape"/>
<feGaussianBlur stdDeviation="50" result="effect2_foregroundBlur_101_2"/>
</filter>
<filter id="filter2_df_101_2" x="1192.01" y="779.962" width="1523.45" height="1559.02" filterUnits="userSpaceOnUse" color-interpolation-filters="sRGB">
<feFlood flood-opacity="0" result="BackgroundImageFix"/>
<feColorMatrix in="SourceAlpha" type="matrix" values="0 0 0 0 0 0 0 0 0 0 0 0 0 0 0 0 0 0 127 0" result="hardAlpha"/>
<feOffset dx="4" dy="4"/>
<feGaussianBlur stdDeviation="10"/>
<feComposite in2="hardAlpha" operator="out"/>
<feColorMatrix type="matrix" values="0 0 0 0 0.996078 0 0 0 0 0.611765 0 0 0 0 0.258824 0 0 0 0.3 0"/>
<feBlend mode="normal" in2="BackgroundImageFix" result="effect1_dropShadow_101_2"/>
<feBlend mode="normal" in="SourceGraphic" in2="effect1_dropShadow_101_2" result="shape"/>
<feGaussianBlur stdDeviation="150" result="effect2_foregroundBlur_101_2"/>
</filter>
<filter id="filter3_df_101_2" x="-52.8472" y="2532.4" width="127.009" height="125.15" filterUnits="userSpaceOnUse" color-interpolation-filters="sRGB">
<feFlood flood-opacity="0" result="BackgroundImageFix"/>
<feColorMatrix in="SourceAlpha" type="matrix" values="0 0 0 0 0 0 0 0 0 0 0 0 0 0 0 0 0 0 127 0" result="hardAlpha"/>
<feOffset dx="4" dy="4"/>
<feGaussianBlur stdDeviation="10"/>
<feComposite in2="hardAlpha" operator="out"/>
<feColorMatrix type="matrix" values="0 0 0 0 0.996078 0 0 0 0 0.611765 0 0 0 0 0.258824 0 0 0 0.3 0"/>
<feBlend mode="normal" in2="BackgroundImageFix" result="effect1_dropShadow_101_2"/>
<feBlend mode="normal" in="SourceGraphic" in2="effect1_dropShadow_101_2" result="shape"/>
<feGaussianBlur stdDeviation="5" result="effect2_foregroundBlur_101_2"/>
</filter>
<filter id="filter4_df_101_2" x="1799.27" y="3895.95" width="87.4622" height="86.4482" filterUnits="userSpaceOnUse" color-interpolation-filters="sRGB">
<feFlood flood-opacity="0" result="BackgroundImageFix"/>
<feColorMatrix in="SourceAlpha" type="matrix" values="0 0 0 0 0 0 0 0 0 0 0 0 0 0 0 0 0 0 127 0" result="hardAlpha"/>
<feOffset dx="4" dy="4"/>
<feGaussianBlur stdDeviation="10"/>
<feComposite in2="hardAlpha" operator="out"/>
<feColorMatrix type="matrix" values="0 0 0 0 0.996078 0 0 0 0 0.611765 0 0 0 0 0.258824 0 0 0 0.3 0"/>
<feBlend mode="normal" in2="BackgroundImageFix" result="effect1_dropShadow_101_2"/>
<feBlend mode="normal" in="SourceGraphic" in2="effect1_dropShadow_101_2" result="shape"/>
<feGaussianBlur stdDeviation="5" result="effect2_foregroundBlur_101_2"/>
</filter>
<filter id="filter5_df_101_2" x="1626.11" y="2074.51" width="207.151" height="203.58" filterUnits="userSpaceOnUse" color-interpolation-filters="sRGB">
<feFlood flood-opacity="0" result="BackgroundImageFix"/>
<feColorMatrix in="SourceAlpha" type="matrix" values="0 0 0 0 0 0 0 0 0 0 0 0 0 0 0 0 0 0 127 0" result="hardAlpha"/>
<feOffset dx="4" dy="4"/>
<feGaussianBlur stdDeviation="10"/>
<feComposite in2="hardAlpha" operator="out"/>
<feColorMatrix type="matrix" values="0 0 0 0 0.996078 0 0 0 0 0.611765 0 0 0 0 0.258824 0 0 0 0.3 0"/>
<feBlend mode="normal" in2="BackgroundImageFix" result="effect1_dropShadow_101_2"/>
<feBlend mode="normal" in="SourceGraphic" in2="effect1_dropShadow_101_2" result="shape"/>
<feGaussianBlur stdDeviation="5" result="effect2_foregroundBlur_101_2"/>
</filter>
<filter id="filter6_df_101_2" x="-725.084" y="377.835" width="1293.97" height="1320.69" filterUnits="userSpaceOnUse" color-interpolation-filters="sRGB">
<feFlood flood-opacity="0" result="BackgroundImageFix"/>
<feColorMatrix in="SourceAlpha" type="matrix" values="0 0 0 0 0 0 0 0 0 0 0 0 0 0 0 0 0 0 127 0" result="hardAlpha"/>
<feOffset dx="4" dy="4"/>
<feGaussianBlur stdDeviation="10"/>
<feComposite in2="hardAlpha" operator="out"/>
<feColorMatrix type="matrix" values="0 0 0 0 0.996078 0 0 0 0 0.611765 0 0 0 0 0.258824 0 0 0 0.3 0"/>
<feBlend mode="normal" in2="BackgroundImageFix" result="effect1_dropShadow_101_2"/>
<feBlend mode="normal" in="SourceGraphic" in2="effect1_dropShadow_101_2" result="shape"/>
<feGaussianBlur stdDeviation="150" result="effect2_foregroundBlur_101_2"/>
</filter>
<filter id="filter7_df_101_2" x="-67.3408" y="909.659" width="163.352" height="163.352" filterUnits="userSpaceOnUse" color-interpolation-filters="sRGB">
<feFlood flood-opacity="0" result="BackgroundImageFix"/>
<feColorMatrix in="SourceAlpha" type="matrix" values="0 0 0 0 0 0 0 0 0 0 0 0 0 0 0 0 0 0 127 0" result="hardAlpha"/>
<feOffset dx="4" dy="4"/>
<feGaussianBlur stdDeviation="10"/>
<feComposite in2="hardAlpha" operator="out"/>
<feColorMatrix type="matrix" values="0 0 0 0 0.996078 0 0 0 0 0.611765 0 0 0 0 0.258824 0 0 0 0.3 0"/>
<feBlend mode="normal" in2="BackgroundImageFix" result="effect1_dropShadow_101_2"/>
<feBlend mode="normal" in="SourceGraphic" in2="effect1_dropShadow_101_2" result="shape"/>
<feGaussianBlur stdDeviation="5" result="effect2_foregroundBlur_101_2"/>
</filter>
<filter id="filter8_d_101_2" x="65.4494" y="1110.87" width="62.2285" height="63.0846" filterUnits="userSpaceOnUse" color-interpolation-filters="sRGB">
<feFlood flood-opacity="0" result="BackgroundImageFix"/>
<feColorMatrix in="SourceAlpha" type="matrix" values="0 0 0 0 0 0 0 0 0 0 0 0 0 0 0 0 0 0 127 0" result="hardAlpha"/>
<feOffset dx="4" dy="4"/>
<feGaussianBlur stdDeviation="10"/>
<feComposite in2="hardAlpha" operator="out"/>
<feColorMatrix type="matrix" values="0 0 0 0 0.996078 0 0 0 0 0.611765 0 0 0 0 0.258824 0 0 0 0.3 0"/>
<feBlend mode="normal" in2="BackgroundImageFix" result="effect1_dropShadow_101_2"/>
<feBlend mode="normal" in="SourceGraphic" in2="effect1_dropShadow_101_2" result="shape"/>
</filter>
<filter id="filter9_d_101_2" x="1827.93" y="2292.16" width="69.6474" height="70.7892" filterUnits="userSpaceOnUse" color-interpolation-filters="sRGB">
<feFlood flood-opacity="0" result="BackgroundImageFix"/>
<feColorMatrix in="SourceAlpha" type="matrix" values="0 0 0 0 0 0 0 0 0 0 0 0 0 0 0 0 0 0 127 0" result="hardAlpha"/>
<feOffset dx="4" dy="4"/>
<feGaussianBlur stdDeviation="10"/>
<feComposite in2="hardAlpha" operator="out"/>
<feColorMatrix type="matrix" values="0 0 0 0 0.996078 0 0 0 0 0.611765 0 0 0 0 0.258824 0 0 0 0.3 0"/>
<feBlend mode="normal" in2="BackgroundImageFix" result="effect1_dropShadow_101_2"/>
<feBlend mode="normal" in="SourceGraphic" in2="effect1_dropShadow_101_2" result="shape"/>
</filter>
<filter id="filter10_df_101_2" x="-50.7175" y="3718.32" width="149.179" height="148.928" filterUnits="userSpaceOnUse" color-interpolation-filters="sRGB">
<feFlood flood-opacity="0" result="BackgroundImageFix"/>
<feColorMatrix in="SourceAlpha" type="matrix" values="0 0 0 0 0 0 0 0 0 0 0 0 0 0 0 0 0 0 127 0" result="hardAlpha"/>
<feOffset dx="4" dy="4"/>
<feGaussianBlur stdDeviation="10"/>
<feComposite in2="hardAlpha" operator="out"/>
<feColorMatrix type="matrix" values="0 0 0 0 0.996078 0 0 0 0 0.611765 0 0 0 0 0.258824 0 0 0 0.3 0"/>
<feBlend mode="normal" in2="BackgroundImageFix" result="effect1_dropShadow_101_2"/>
<feBlend mode="normal" in="SourceGraphic" in2="effect1_dropShadow_101_2" result="shape"/>
<feGaussianBlur stdDeviation="5" result="effect2_foregroundBlur_101_2"/>
</filter>
<filter id="filter11_d_101_2" x="63.1959" y="3890.61" width="71.3157" height="67.7518" filterUnits="userSpaceOnUse" color-interpolation-filters="sRGB">
<feFlood flood-opacity="0" result="BackgroundImageFix"/>
<feColorMatrix in="SourceAlpha" type="matrix" values="0 0 0 0 0 0 0 0 0 0 0 0 0 0 0 0 0 0 127 0" result="hardAlpha"/>
<feOffset dx="4" dy="4"/>
<feGaussianBlur stdDeviation="10"/>
<feComposite in2="hardAlpha" operator="out"/>
<feColorMatrix type="matrix" values="0 0 0 0 0.996078 0 0 0 0 0.611765 0 0 0 0 0.258824 0 0 0 0.3 0"/>
<feBlend mode="normal" in2="BackgroundImageFix" result="effect1_dropShadow_101_2"/>
<feBlend mode="normal" in="SourceGraphic" in2="effect1_dropShadow_101_2" result="shape"/>
</filter>
<filter id="filter12_df_101_2" x="1654.7" y="4071.39" width="144.038" height="138.177" filterUnits="userSpaceOnUse" color-interpolation-filters="sRGB">
<feFlood flood-opacity="0" result="BackgroundImageFix"/>
<feColorMatrix in="SourceAlpha" type="matrix" values="0 0 0 0 0 0 0 0 0 0 0 0 0 0 0 0 0 0 127 0" result="hardAlpha"/>
<feOffset dx="4" dy="4"/>
<feGaussianBlur stdDeviation="10"/>
<feComposite in2="hardAlpha" operator="out"/>
<feColorMatrix type="matrix" values="0 0 0 0 0.996078 0 0 0 0 0.611765 0 0 0 0 0.258824 0 0 0 0.3 0"/>
<feBlend mode="normal" in2="BackgroundImageFix" result="effect1_dropShadow_101_2"/>
<feBlend mode="normal" in="SourceGraphic" in2="effect1_dropShadow_101_2" result="shape"/>
<feGaussianBlur stdDeviation="4.5" result="effect2_foregroundBlur_101_2"/>
</filter>
<filter id="filter13_df_101_2" x="1702.63" y="655.01" width="66.5644" height="66.0143" filterUnits="userSpaceOnUse" color-interpolation-filters="sRGB">
<feFlood flood-opacity="0" result="BackgroundImageFix"/>
<feColorMatrix in="SourceAlpha" type="matrix" values="0 0 0 0 0 0 0 0 0 0 0 0 0 0 0 0 0 0 127 0" result="hardAlpha"/>
<feOffset dx="4" dy="4"/>
<feGaussianBlur stdDeviation="10"/>
<feComposite in2="hardAlpha" operator="out"/>
<feColorMatrix type="matrix" values="0 0 0 0 0.996078 0 0 0 0 0.611765 0 0 0 0 0.258824 0 0 0 0.3 0"/>
<feBlend mode="normal" in2="BackgroundImageFix" result="effect1_dropShadow_101_2"/>
<feBlend mode="normal" in="SourceGraphic" in2="effect1_dropShadow_101_2" result="shape"/>
<feGaussianBlur stdDeviation="2" result="effect2_foregroundBlur_101_2"/>
</filter>
<filter id="filter14_df_101_2" x="1669.02" y="59.0923" width="104.094" height="106.639" filterUnits="userSpaceOnUse" color-interpolation-filters="sRGB">
<feFlood flood-opacity="0" result="BackgroundImageFix"/>
<feColorMatrix in="SourceAlpha" type="matrix" values="0 0 0 0 0 0 0 0 0 0 0 0 0 0 0 0 0 0 127 0" result="hardAlpha"/>
<feOffset dx="4" dy="4"/>
<feGaussianBlur stdDeviation="10"/>
<feComposite in2="hardAlpha" operator="out"/>
<feColorMatrix type="matrix" values="0 0 0 0 0.996078 0 0 0 0 0.611765 0 0 0 0 0.258824 0 0 0 0.3 0"/>
<feBlend mode="normal" in2="BackgroundImageFix" result="effect1_dropShadow_101_2"/>
<feBlend mode="normal" in="SourceGraphic" in2="effect1_dropShadow_101_2" result="shape"/>
<feGaussianBlur stdDeviation="5" result="effect2_foregroundBlur_101_2"/>
</filter>
<filter id="filter15_df_101_2" x="1807.66" y="256.817" width="58.8754" height="58.4722" filterUnits="userSpaceOnUse" color-interpolation-filters="sRGB">
<feFlood flood-opacity="0" result="BackgroundImageFix"/>
<feColorMatrix in="SourceAlpha" type="matrix" values="0 0 0 0 0 0 0 0 0 0 0 0 0 0 0 0 0 0 127 0" result="hardAlpha"/>
<feOffset dx="4" dy="4"/>
<feGaussianBlur stdDeviation="10"/>
<feComposite in2="hardAlpha" operator="out"/>
<feColorMatrix type="matrix" values="0 0 0 0 0.996078 0 0 0 0 0.611765 0 0 0 0 0.258824 0 0 0 0.3 0"/>
<feBlend mode="normal" in2="BackgroundImageFix" result="effect1_dropShadow_101_2"/>
<feBlend mode="normal" in="SourceGraphic" in2="effect1_dropShadow_101_2" result="shape"/>
<feGaussianBlur stdDeviation="2" result="effect2_foregroundBlur_101_2"/>
</filter>
<filter id="filter16_df_101_2" x="840.538" y="-38.3542" width="112.626" height="115.423" filterUnits="userSpaceOnUse" color-interpolation-filters="sRGB">
<feFlood flood-opacity="0" result="BackgroundImageFix"/>
<feColorMatrix in="SourceAlpha" type="matrix" values="0 0 0 0 0 0 0 0 0 0 0 0 0 0 0 0 0 0 127 0" result="hardAlpha"/>
<feOffset dx="4" dy="4"/>
<feGaussianBlur stdDeviation="10"/>
<feComposite in2="hardAlpha" operator="out"/>
<feColorMatrix type="matrix" values="0 0 0 0 0.996078 0 0 0 0 0.611765 0 0 0 0 0.258824 0 0 0 0.3 0"/>
<feBlend mode="normal" in2="BackgroundImageFix" result="effect1_dropShadow_101_2"/>
<feBlend mode="normal" in="SourceGraphic" in2="effect1_dropShadow_101_2" result="shape"/>
<feGaussianBlur stdDeviation="2.5" result="effect2_foregroundBlur_101_2"/>
</filter>
<filter id="filter17_df_101_2" x="746.422" y="65.585" width="72.076" height="73.3113" filterUnits="userSpaceOnUse" color-interpolation-filters="sRGB">
<feFlood flood-opacity="0" result="BackgroundImageFix"/>
<feColorMatrix in="SourceAlpha" type="matrix" values="0 0 0 0 0 0 0 0 0 0 0 0 0 0 0 0 0 0 127 0" result="hardAlpha"/>
<feOffset dx="4" dy="4"/>
<feGaussianBlur stdDeviation="10"/>
<feComposite in2="hardAlpha" operator="out"/>
<feColorMatrix type="matrix" values="0 0 0 0 0.996078 0 0 0 0 0.611765 0 0 0 0 0.258824 0 0 0 0.3 0"/>
<feBlend mode="normal" in2="BackgroundImageFix" result="effect1_dropShadow_101_2"/>
<feBlend mode="normal" in="SourceGraphic" in2="effect1_dropShadow_101_2" result="shape"/>
<feGaussianBlur stdDeviation="2.5" result="effect2_foregroundBlur_101_2"/>
</filter>
<filter id="filter18_d_101_2" x="989.45" y="820.87" width="62.2285" height="63.0846" filterUnits="userSpaceOnUse" color-interpolation-filters="sRGB">
<feFlood flood-opacity="0" result="BackgroundImageFix"/>
<feColorMatrix in="SourceAlpha" type="matrix" values="0 0 0 0 0 0 0 0 0 0 0 0 0 0 0 0 0 0 127 0" result="hardAlpha"/>
<feOffset dx="4" dy="4"/>
<feGaussianBlur stdDeviation="10"/>
<feComposite in2="hardAlpha" operator="out"/>
<feColorMatrix type="matrix" values="0 0 0 0 0.996078 0 0 0 0 0.611765 0 0 0 0 0.258824 0 0 0 0.3 0"/>
<feBlend mode="normal" in2="BackgroundImageFix" result="effect1_dropShadow_101_2"/>
<feBlend mode="normal" in="SourceGraphic" in2="effect1_dropShadow_101_2" result="shape"/>
</filter>
<filter id="filter19_df_101_2" x="807.927" y="738.661" width="91.2535" height="90.1584" filterUnits="userSpaceOnUse" color-interpolation-filters="sRGB">
<feFlood flood-opacity="0" result="BackgroundImageFix"/>
<feColorMatrix in="SourceAlpha" type="matrix" values="0 0 0 0 0 0 0 0 0 0 0 0 0 0 0 0 0 0 127 0" result="hardAlpha"/>
<feOffset dx="4" dy="4"/>
<feGaussianBlur stdDeviation="10"/>
<feComposite in2="hardAlpha" operator="out"/>
<feColorMatrix type="matrix" values="0 0 0 0 0.996078 0 0 0 0 0.611765 0 0 0 0 0.258824 0 0 0 0.3 0"/>
<feBlend mode="normal" in2="BackgroundImageFix" result="effect1_dropShadow_101_2"/>
<feBlend mode="normal" in="SourceGraphic" in2="effect1_dropShadow_101_2" result="shape"/>
<feGaussianBlur stdDeviation="2" result="effect2_foregroundBlur_101_2"/>
</filter>
<linearGradient id="paint0_linear_101_2" x1="1064.63" y1="63.6636" x2="1901.7" y2="833.942" gradientUnits="userSpaceOnUse">
<stop stop-color="#555A64"/>
<stop offset="1" stop-color="#383D47"/>
</linearGradient>
</defs>
</svg>
