<svg width="16" height="16" viewBox="0 0 16 16" fill="none" xmlns="http://www.w3.org/2000/svg">
<path d="M4.18092 5.54882H1.17311V14.9995H4.18092V5.54882Z" fill="#929395"/>
<path d="M14.052 6.41192C13.4202 5.69028 12.5846 5.32939 11.5456 5.32939C11.1628 5.32939 10.8148 5.37866 10.5018 5.47727C10.1889 5.57581 9.92466 5.71406 9.70888 5.8921C9.49323 6.07014 9.32148 6.23542 9.19397 6.38793C9.07272 6.5328 8.95416 6.70156 8.83846 6.89245V5.54858H5.83964L5.84884 6.0064C5.855 6.31168 5.85803 7.25257 5.85803 8.82923C5.85803 10.406 5.85197 12.4627 5.83977 14.9995H8.83846V9.7256C8.83846 9.40142 8.8717 9.14399 8.93867 8.95309C9.06637 8.62868 9.2591 8.35708 9.51749 8.13782C9.77586 7.9183 10.0963 7.80863 10.4792 7.80863C11.0016 7.80863 11.3861 7.99776 11.6322 8.37605C11.8783 8.75431 12.0013 9.27727 12.0013 9.94486V14.9992H15V9.5827C14.9998 8.1902 14.684 7.13332 14.052 6.41192Z" fill="#929395"/>
<path d="M2.69528 0.999512C2.191 0.999512 1.7824 1.15383 1.46938 1.46216C1.1564 1.77056 1 2.15992 1 2.63058C1 3.09467 1.1519 3.48269 1.45572 3.7942C1.75945 4.10574 2.16055 4.26159 2.65879 4.26159H2.67702C3.18749 4.26159 3.59922 4.10587 3.91211 3.7942C4.225 3.48269 4.37839 3.09481 4.37236 2.63058C4.36629 2.15995 4.21124 1.77056 3.90751 1.46216C3.60381 1.1537 3.19959 0.999512 2.69528 0.999512Z" fill="#929395"/>
</svg>
