<svg width="476" height="89" viewBox="0 0 476 89" fill="none" xmlns="http://www.w3.org/2000/svg">
<g clip-path="url(#clip0_0_12139)">
<path d="M78.0336 16.372C82.7393 11.8843 87.1014 5.32698 86.5544 0.270319C81.491 -0.789374 76.0209 1.33001 69.639 5.61146C69.7092 5.35542 69.7723 5.14206 69.8845 4.71534C68.2224 4.694 65.5575 5.15629 64.5546 6.0524C62.3455 8.02244 60.452 10.5614 58.6847 12.944C57.3312 14.7646 56.1741 16.7347 54.7645 18.8896C56.6369 18.0504 58.1938 17.3605 59.7928 16.6422C60.6554 18.3776 59.5824 19.4586 58.264 20.3191C48.1512 26.9333 15.4707 47.7929 15.4707 47.7929C15.2392 46.3207 15.12 44.5783 15.12 43.0421C15.12 27.0969 27.7925 15.1274 43.5717 13.7974C45.4302 13.6409 50.164 14.0321 50.164 14.0321L55.8234 3.805C55.8234 3.805 49.659 1.92031 43.5858 1.90609C21.1933 1.87053 3.03663 20.3263 3.03663 43.0421C3.03663 47.3235 3.68182 51.4556 4.88104 55.3388L0 89.0001C0 89.0001 47.5762 39.799 62.4858 25.3829C63.7411 24.1668 64.8211 23.5338 66.4341 24.5793C65.5505 26.0657 64.8281 27.3316 63.8042 29.0456C64.1268 28.9176 66.897 27.6019 69.9055 25.9305C72.4372 24.5295 75.6352 22.7941 77.178 21.45C78.3772 20.4045 79.6536 17.9011 79.2118 16.0448C78.9453 16.1088 78.3211 16.2937 78.0336 16.372ZM69.9476 17.6095C69.7723 19.3235 68.2575 20.4898 66.5112 20.2622C64.8772 20.056 63.692 18.5198 63.8954 16.8769C64.0988 15.2127 65.5785 14.0392 67.2336 14.2312C69.0219 14.4375 70.13 15.8172 69.9476 17.6095Z" fill="url(#paint0_linear_0_12139)"/>
<path d="M70.5718 33.3057C70.5718 33.3057 71.8692 39.0878 71.8271 42.8074C71.6518 59.0228 59.0845 71.6751 43.3614 71.6751C42.3515 71.6751 41.3556 71.6182 40.3738 71.5116L33.2626 82.6419C36.4956 83.4811 39.8759 83.9363 43.3684 83.9363C65.7679 83.9363 84.2261 66.0993 83.9315 42.8003C83.8684 37.6227 82.9076 31.3072 81.2035 27.7512L70.5718 33.3057Z" fill="url(#paint1_linear_0_12139)"/>
</g>
<path d="M135.491 78.26C128.827 78.26 122.786 76.8206 117.367 73.9419C112.011 71.0005 107.776 66.964 104.662 61.8322C101.611 56.6379 100.085 50.7865 100.085 44.2779C100.085 37.7694 101.611 31.9493 104.662 26.8175C107.776 21.6232 112.011 17.5867 117.367 14.7079C122.786 11.7665 128.858 10.2959 135.584 10.2959C141.251 10.2959 146.358 11.2972 150.905 13.2998C155.513 15.3024 159.375 18.1812 162.489 21.9361L152.773 30.948C148.351 25.8162 142.871 23.2504 136.331 23.2504C132.283 23.2504 128.671 24.1578 125.495 25.9727C122.319 27.725 119.827 30.197 118.021 33.3887C116.278 36.5803 115.406 40.2101 115.406 44.2779C115.406 48.3458 116.278 51.9755 118.021 55.1672C119.827 58.3589 122.319 60.8622 125.495 62.6771C128.671 64.4294 132.283 65.3055 136.331 65.3055C142.871 65.3055 148.351 62.7084 152.773 57.5141L162.489 66.5259C159.375 70.3434 155.513 73.2535 150.905 75.2561C146.296 77.2587 141.158 78.26 135.491 78.26Z" fill="white"/>
<path d="M193.863 77.8845C188.569 77.8845 183.805 76.7893 179.57 74.599C175.397 72.346 172.127 69.2482 169.761 65.3055C167.394 61.3629 166.211 56.8882 166.211 51.8817C166.211 46.8751 167.394 42.4005 169.761 38.4578C172.127 34.5151 175.397 31.4486 179.57 29.2582C183.805 27.0053 188.569 25.8788 193.863 25.8788C199.156 25.8788 203.89 27.0053 208.062 29.2582C212.235 31.4486 215.505 34.5151 217.871 38.4578C220.238 42.4005 221.421 46.8751 221.421 51.8817C221.421 56.8882 220.238 61.3629 217.871 65.3055C215.505 69.2482 212.235 72.346 208.062 74.599C203.89 76.7893 199.156 77.8845 193.863 77.8845ZM193.863 65.8688C197.599 65.8688 200.651 64.6171 203.018 62.1138C205.447 59.548 206.661 56.1373 206.661 51.8817C206.661 47.6261 205.447 44.2467 203.018 41.7434C200.651 39.1775 197.599 37.8946 193.863 37.8946C190.126 37.8946 187.043 39.1775 184.614 41.7434C182.185 44.2467 180.971 47.6261 180.971 51.8817C180.971 56.1373 182.185 59.548 184.614 62.1138C187.043 64.6171 190.126 65.8688 193.863 65.8688Z" fill="white"/>
<path d="M231.162 26.6298H245.736V77.1336H231.162V26.6298ZM238.449 19.5893C235.771 19.5893 233.591 18.807 231.91 17.2425C230.228 15.6779 229.387 13.7379 229.387 11.4223C229.387 9.1068 230.228 7.16675 231.91 5.6022C233.591 4.03765 235.771 3.25537 238.449 3.25537C241.127 3.25537 243.307 4.00636 244.988 5.50833C246.67 7.0103 247.511 8.88776 247.511 11.1407C247.511 13.5814 246.67 15.6153 244.988 17.2425C243.307 18.807 241.127 19.5893 238.449 19.5893Z" fill="white"/>
<path d="M289.809 25.8788C296.037 25.8788 301.05 27.7563 304.849 31.5112C308.711 35.2661 310.641 40.8359 310.641 48.2206V77.1336H296.068V50.4736C296.068 46.4683 295.196 43.4957 293.452 41.5556C291.708 39.553 289.186 38.5517 285.885 38.5517C282.211 38.5517 279.284 39.7095 277.104 42.025C274.924 44.2779 273.834 47.6574 273.834 52.1633V77.1336H259.261V26.6298H273.18V32.5438C275.111 30.416 277.509 28.7889 280.374 27.6624C283.238 26.4733 286.384 25.8788 289.809 25.8788Z" fill="white"/>
<path d="M387.563 77.1336L387.469 29.2582L363.834 69.1543H359.537L335.902 29.5399V77.1336H326.934V11.4223H334.594L361.873 57.6079L388.777 11.4223H396.438L396.531 77.1336H387.563Z" fill="white"/>
<path d="M414.848 27.3808H423.817V77.1336H414.848V27.3808ZM419.332 17.8057C417.589 17.8057 416.125 17.2425 414.942 16.116C413.821 14.9895 413.26 13.6127 413.26 11.9856C413.26 10.3584 413.821 8.98164 414.942 7.85516C416.125 6.6661 417.589 6.07157 419.332 6.07157C421.076 6.07157 422.509 6.63481 423.63 7.76129C424.813 8.82518 425.405 10.1707 425.405 11.7978C425.405 13.4875 424.813 14.9269 423.63 16.116C422.509 17.2425 421.076 17.8057 419.332 17.8057Z" fill="white"/>
<path d="M440.94 7.47966H449.908V77.1336H440.94V7.47966Z" fill="white"/>
<path d="M467.031 7.47966H476V77.1336H467.031V7.47966Z" fill="white"/>
<ellipse cx="238.152" cy="11.8667" rx="9.84101" ry="9.88889" fill="url(#paint2_linear_0_12139)"/>
<defs>
<linearGradient id="paint0_linear_0_12139" x1="-12.8298" y1="-8.03419" x2="40.0527" y2="120.354" gradientUnits="userSpaceOnUse">
<stop stop-color="#FAB050"/>
<stop offset="1" stop-color="#EB722E"/>
</linearGradient>
<linearGradient id="paint1_linear_0_12139" x1="-12.8298" y1="-8.03419" x2="40.0527" y2="120.354" gradientUnits="userSpaceOnUse">
<stop stop-color="#FAB050"/>
<stop offset="1" stop-color="#EB722E"/>
</linearGradient>
<linearGradient id="paint2_linear_0_12139" x1="225.395" y1="0.192289" x2="236.959" y2="28.9062" gradientUnits="userSpaceOnUse">
<stop stop-color="#FAB050"/>
<stop offset="1" stop-color="#EB722E"/>
</linearGradient>
<clipPath id="clip0_0_12139">
<rect width="86.6009" height="89" fill="white"/>
</clipPath>
</defs>
</svg>
