<svg width="16" height="16" viewBox="0 0 16 16" fill="none" xmlns="http://www.w3.org/2000/svg">
<path d="M5.33067 14.4429C5.33067 14.9232 4.98333 15.1216 4.59867 14.9232L0.446667 12.7717C0.321333 12.7102 0.216 12.6072 0.13 12.4628C0.044 12.3183 0 12.1746 0 12.0329V1.50889C0 1.11632 0.227333 0.938695 0.741333 1.20409L5.304 3.56779C5.37 3.63622 5.32133 3.16624 5.33067 14.4429ZM5.902 4.54576L10.67 12.5409L5.902 10.0852V4.54576ZM16 4.71232V14.4429C16 14.597 15.9587 14.7214 15.8747 14.8168C15.7913 14.9122 15.678 14.9599 15.5353 14.9599C15.3927 14.9599 15.2527 14.9198 15.116 14.8396L11.1787 12.8083L16 4.71232ZM15.9733 3.60442C15.9733 3.62308 15.21 4.91413 13.6833 7.47688C12.1567 10.0396 11.262 11.5408 11 11.9776L7.518 6.12432L10.4107 1.25938C10.568 0.991222 10.8907 0.944224 11.1073 1.05619L15.938 3.54913C15.9613 3.56088 15.9733 3.57954 15.9733 3.60442Z" fill="#929395"/>
</svg>
