<svg width="250" height="250" viewBox="0 0 250 250" fill="none" xmlns="http://www.w3.org/2000/svg">
<g clip-path="url(#clip0_0_10100)">
<path d="M171.347 41.2905C166.792 19.7779 153.78 5.11053 147.924 2.17717C134.748 -4.42304 130.357 6.08832 124.5 6.08832C118.644 6.08832 114.253 -4.42364 101.077 2.17717C95.2218 5.11053 82.2086 19.7779 77.6541 41.2905C73.0997 62.803 124.5 45.2016 124.5 45.2016C124.5 45.2016 175.901 62.803 171.347 41.2905Z" fill="#FD7827"/>
<path d="M124.5 105.606C174.089 105.606 214.289 90.7214 214.289 72.3598C214.289 53.9983 174.089 39.1133 124.5 39.1133C74.9116 39.1133 34.7119 53.9983 34.7119 72.3598C34.7119 90.7214 74.9116 105.606 124.5 105.606Z" fill="#FF651A"/>
<path d="M71.6704 96.4312C65.8185 94.9642 61.9848 98.0985 61.9848 104.254C61.9848 112.403 69.8544 132.367 78.1275 119.899C86.4005 107.432 71.6704 96.4312 71.6704 96.4312Z" fill="#F5AF73"/>
<path d="M176.335 96.4312C182.723 94.9642 186.908 98.0985 186.908 104.254C186.908 112.403 178.318 132.367 169.287 119.899C160.257 107.432 176.335 96.4312 176.335 96.4312Z" fill="#F5AF73"/>
<path d="M81.6112 167.553C90.3417 161.922 89.3652 145.159 89.3652 141.248H159.635C159.635 145.159 158.552 161.922 167.282 167.553L124.5 215.564L81.6112 167.553Z" fill="#F5AF73"/>
<path d="M151.827 184.273L167.282 167.553C158.551 161.922 159.634 145.159 159.634 141.248H89.3649C94.4065 155.771 127.753 180.688 151.827 184.273Z" fill="#F5965F"/>
<path d="M214.288 250C220.757 250 226 244.747 226 238.266V214.961C226 197.75 212.615 179.377 196.255 174.133L171.832 166.303C158.691 176.37 139.913 190.102 124.5 190.102C109.087 190.102 90.3085 176.37 77.1684 166.303L52.745 174.133C36.3852 179.377 23 197.75 23 214.961V238.266C23 244.747 28.2432 250 34.7116 250H214.288Z" fill="#363E49"/>
<path d="M124.5 190.101L108.212 206.421C106.516 208.121 103.705 207.9 102.294 205.956L73.7503 166.633L82.8427 157.523C84.311 156.052 86.6716 155.99 88.2147 157.382L124.5 190.101Z" fill="#535861"/>
<path d="M124.5 190.101L140.788 206.421C142.484 208.121 145.295 207.9 146.706 205.956L175.25 166.633L166.157 157.523C164.689 156.052 162.328 155.99 160.785 157.382L124.5 190.101Z" fill="#535861"/>
<path d="M72.2804 69.9828C71.3673 75.5161 71.3175 82.1692 71.3175 90.0753C71.3175 121.398 88.8342 160.48 124.5 160.48C160.167 160.48 177.683 121.398 177.683 90.0753C177.683 82.1686 177.634 75.5161 176.721 69.9828C162.413 65.1521 144.264 62.2556 124.501 62.2556C104.738 62.2556 86.5875 65.1515 72.2804 69.9828Z" fill="#F5AF73"/>
<path d="M177.883 76.3102C174.758 72.2927 171.407 68.1646 171.407 68.1646V72.0757C172.375 107.522 159.786 122.923 159.786 122.923L143.745 124.722C131.236 126.126 118.611 126.126 106.102 124.722L90.0611 122.923C90.0611 122.923 77.4721 107.522 78.4403 72.0757V68.1646C78.4403 68.1646 75.089 72.2921 71.9643 76.3102C71.1503 79.7987 69.8457 83.5916 69.8457 87.7548C69.8457 119.077 88.5548 164.237 124.924 164.237C161.292 164.237 179.154 119.077 179.154 87.7548C179.154 83.5916 178.697 79.7987 177.883 76.3102ZM113.303 132.213H136.544C139.731 132.213 142.463 134.158 143.653 136.935C139.362 138.82 132.775 140.035 125.351 140.035C117.513 140.035 110.623 138.678 106.37 136.608C107.631 134.015 110.247 132.213 113.303 132.213Z" fill="#2E3339"/>
<path d="M126.574 128.733C126.574 123.569 121.572 122.399 118.279 123.651C112.24 125.946 105.591 132.348 99.9793 128.389C99.9793 128.389 101.931 136.653 105.224 136.653C111.812 136.652 126.574 137.514 126.574 128.733Z" fill="#363E49"/>
<path d="M124.995 128.733C124.995 123.569 129.997 122.399 133.29 123.651C139.329 125.946 145.978 132.348 151.59 128.389C151.59 128.389 149.638 136.653 146.345 136.653C139.757 136.652 124.995 137.514 124.995 128.733Z" fill="#363E49"/>
<path d="M190.865 171.895L175.25 166.888V215.016C175.25 216.807 174.064 218.39 172.329 218.818C159.114 222.078 142.538 224.03 124.5 224.03C106.462 224.03 89.8855 222.078 76.6706 218.818C74.9353 218.39 73.75 216.807 73.75 215.016V166.888L58.1348 171.895V250H190.866V171.895H190.865Z" fill="#FF651A"/>
<path d="M70.1079 96.9368L80.6496 98.8841C80.6496 98.8841 84.7663 75.7548 86.9732 66.1458C81.2156 67.2971 75.7855 68.6821 70.8353 70.3083C69.8967 75.8416 69.8457 82.4947 69.8457 90.4008C69.8463 92.5478 69.9389 94.7328 70.1079 96.9368Z" fill="#2E3339"/>
<path d="M178.892 96.9368L168.35 98.8841C168.35 98.8841 164.233 75.7548 162.026 66.1458C167.784 67.2971 173.214 68.6821 178.164 70.3083C179.103 75.8416 179.154 82.4947 179.154 90.4008C179.154 92.5478 179.061 94.7328 178.892 96.9368Z" fill="#2E3339"/>
<path d="M147.435 75.7009L156.802 65.0178C146.858 63.256 135.966 62.2556 124.499 62.2556C117.521 62.2556 110.759 62.6342 104.282 63.3142C110.405 62.8946 134.503 66.146 147.435 75.7009Z" fill="#2E3339"/>
</g>
<defs>
<clipPath id="clip0_0_10100">
<rect width="250" height="250" fill="white"/>
</clipPath>
</defs>
</svg>
