<svg width="250" height="250" viewBox="0 0 250 250" fill="none" xmlns="http://www.w3.org/2000/svg">
<g opacity="0.06">
<path d="M180.191 190.372C179.578 185.769 184.185 182.291 188.327 184.392C199.283 189.95 209.899 196.959 210.994 201.795C211.111 202.314 211.157 202.846 211.297 203.36L221.936 242.423C222.975 246.24 220.102 250 216.147 250H183.882C179.371 250 176.473 245.209 178.568 241.214L184.375 230.136C184.951 229.038 185.172 227.788 185.009 226.559L180.191 190.372Z" fill="#363E49"/>
<path d="M198.174 60.3447L159.357 69.4913C136.76 74.8146 113.241 74.8146 90.6429 69.4913L51.8263 60.3447C39.942 60.3447 30.3046 69.9956 30.3046 81.8965C30.3046 93.7973 53.2984 98.4309 65.1827 98.4309H180.475C192.363 98.4309 219.696 93.7973 219.696 81.8965C219.696 69.9956 210.058 60.3447 198.174 60.3447Z" fill="#FF651A"/>
<path d="M62.5872 82.1768C56.6429 82.1768 51.8263 87 51.8263 92.9526C51.8263 98.9052 56.6429 103.728 62.5872 103.728H69.0437V82.1768H62.5872Z" fill="#F5AF73"/>
<path d="M198.174 92.9526C198.174 87 193.358 82.1768 187.413 82.1768H180.957V103.728H187.413C193.358 103.728 198.174 98.9052 198.174 92.9526Z" fill="#F5AF73"/>
<path d="M69.0435 56.0344V103.728L90.1908 122.625C93.3244 125.194 96.6904 127.315 100.181 129.086C115.763 136.996 134.233 136.996 149.815 129.086C153.305 127.315 156.671 125.19 159.805 122.625L180.957 103.728V56.0344H69.0435Z" fill="#F5AF73"/>
<path d="M172.348 66.431L159.357 69.4913C136.76 74.8146 113.241 74.8146 90.6428 69.4913L77.6522 66.431L69.0435 64.4008V77.1249L77.6522 79.1551L90.6428 82.2154C113.241 87.5387 136.76 87.5387 159.357 82.2154L172.348 79.1508L180.957 77.1206V64.3965L172.348 66.431Z" fill="#F5965F"/>
<path d="M168.043 228.448V176.724V175.668C173.566 177.78 179.545 180.216 185.261 182.832V228.448H168.043Z" fill="#FF651A"/>
<path d="M69.8089 190.372C70.4218 185.769 65.8143 182.291 61.6726 184.392C50.7168 189.95 40.1007 196.959 39.0058 201.795C38.8882 202.314 38.8421 202.847 38.7022 203.36L28.0635 242.423C27.0241 246.24 29.8973 250 33.8526 250H66.1179C70.6287 250 73.5263 245.209 71.4318 241.214L65.6242 230.137C65.0484 229.038 64.827 227.788 64.9907 226.559L69.8089 190.372Z" fill="#363E49"/>
<path d="M155.13 211.207L125 198.276L94.8693 211.207L81.9562 176.724V228.448H168.043V176.724L155.13 211.207Z" fill="#363E49"/>
<path d="M168.043 176.724L155.13 211.207L125 198.276L94.8693 211.207L81.9562 176.724V203.448L89.704 224.138L125 208.991L160.295 224.138L168.043 203.448V176.724Z" fill="#2E3339"/>
<path d="M94.8693 211.207L125 198.276L103.478 176.724V168.104C103.478 168.104 93.8061 171.134 81.9562 175.668V176.724L94.8693 211.207Z" fill="#535861"/>
<path d="M155.13 211.207L125 198.276L146.521 176.724V168.104C146.521 168.104 156.193 171.134 168.043 175.668V176.724L155.13 211.207Z" fill="#535861"/>
<path d="M81.9564 228.448V176.724V175.668C76.4339 177.78 70.4552 180.216 64.739 182.832V228.448H81.9564Z" fill="#FF651A"/>
<path d="M64.739 228.448H185.261V250H64.739V228.448Z" fill="#FF651A"/>
<path d="M159.809 122.625C156.676 125.194 153.31 127.315 149.819 129.086C134.237 136.996 115.767 136.996 100.186 129.086C96.6947 127.315 93.3287 125.19 90.1951 122.625L69.0435 103.729V132.224C69.0435 138.569 72.5215 144.397 78.0999 147.405L103.478 161.091L116.839 168.293C121.935 171.043 128.069 171.043 133.165 168.293L171.905 147.405C177.479 144.397 180.957 138.569 180.957 132.224V103.729L159.809 122.625Z" fill="#F5AF73"/>
<path d="M180.957 46.5905L174.956 32.1207L165.896 10.2672C164.639 4.28448 159.366 0 153.263 0H96.7508C90.6386 0 85.3615 4.2931 84.1132 10.2802L69.0437 46.4224L51.8263 60.3448L58.8424 62L77.6524 66.431L90.6429 69.4914C113.241 74.8147 136.76 74.8147 159.358 69.4914L172.348 66.431L186.918 63L198.174 60.3448L180.957 46.5905Z" fill="#FD7827"/>
<path d="M133.161 168.293C128.064 171.043 121.931 171.043 116.834 168.293L103.478 161.09V177.629L125 199.181L146.521 177.629V161.09L133.161 168.293Z" fill="#F5AF73"/>
<path d="M180.956 46.5906L180.28 44.957L144.257 49.1122C131.478 50.8148 118.522 50.8191 105.669 49.1036L69.6586 44.9441L69.0431 46.4225L61.3297 52.6596L104.606 57.6596C111.376 58.5648 118.199 59.0131 125.013 59.0131C131.809 59.0131 138.593 58.5648 145.312 57.6639L188.571 52.6725L180.956 46.5906Z" fill="#140F0A"/>
</g>
</svg>
