<svg width="250" height="250" viewBox="0 0 250 250" fill="none" xmlns="http://www.w3.org/2000/svg">
<path d="M146.125 172.414V189.655H102.875V168.104C108.571 164.092 111.932 157.554 111.871 150.604H137.129C137.068 157.554 140.43 164.092 146.125 168.104V172.414Z" fill="#F5AF73"/>
<path d="M75.2385 46.9397L96.8202 7.4569C97.9736 5.39453 99.9033 3.87459 102.183 3.23276C109.462 1.2508 116.957 0.165121 124.5 0C132.044 0.165121 139.539 1.2508 146.817 3.23276C149.097 3.87459 151.027 5.39453 152.18 7.4569L173.762 46.9397H75.2385Z" fill="#FD7827"/>
<path d="M172.075 82.6724C195.56 78.7931 211 72.1552 211 64.6552C211 52.7586 172.291 43.1035 124.5 43.1035C76.7087 43.1035 38 52.7586 38 64.6552C38 72.1552 53.4403 78.7931 76.925 82.6724H172.075Z" fill="#FF651A"/>
<path d="M193.7 198.276V241.379C193.686 246.134 189.821 249.986 185.05 250H63.9498C59.1785 249.986 55.3141 246.134 55.2998 241.379V198.276C55.2964 184.93 64.0914 173.167 76.9248 169.353C79.7311 168.516 82.6456 168.095 85.5748 168.103H102.875C102.875 168.103 116.023 179.828 121.818 184.44C123.386 185.69 125.614 185.69 127.181 184.44C132.977 179.828 146.125 168.103 146.125 168.103H163.425C166.354 168.095 169.269 168.516 172.075 169.353C184.908 173.167 193.703 184.93 193.7 198.276Z" fill="#FD7827"/>
<path d="M85.5749 168.103V250H76.9249V169.354C79.7311 168.516 82.6456 168.095 85.5749 168.103Z" fill="#363E49"/>
<path d="M172.075 169.354V250H163.425V168.103C166.354 168.095 169.269 168.516 172.075 169.354Z" fill="#363E49"/>
<path d="M165.327 107.5L163.165 125.427C160.827 140.081 148.146 150.866 133.258 150.862H115.741C100.858 150.862 88.1815 140.08 85.8426 125.431L83.6801 107.504C82.8816 107.677 82.0666 107.762 81.2495 107.759C74.0836 107.759 68.2745 101.969 68.2745 94.8275C68.2745 87.6859 74.0836 81.8965 81.2495 81.8965V70.8232C81.2411 66.4328 84.5449 62.7374 88.922 62.2413C100.736 60.9479 112.614 60.3147 124.499 60.3448C136.385 60.3147 148.263 60.9479 160.077 62.2413C164.454 62.7374 167.758 66.4328 167.749 70.8232V81.8965C174.915 81.8965 180.724 87.6859 180.724 94.8275C180.724 101.969 174.915 107.759 167.749 107.759C166.935 107.76 166.123 107.673 165.327 107.5Z" fill="#F5AF73"/>
<path d="M102.875 224.138H146.125C148.514 224.138 150.45 226.068 150.45 228.448V250H98.5499V228.448C98.5499 226.068 100.486 224.138 102.875 224.138Z" fill="#363E49"/>
<path d="M165.328 107.5L163.166 125.431C160.825 140.091 148.132 150.877 133.237 150.862H115.764C100.869 150.877 88.1755 140.091 85.8349 125.431L83.6724 107.5C83.6724 107.5 94.2254 116.379 102.875 116.379C111.525 116.379 115.85 107.759 124.5 107.759C133.15 107.759 137.475 116.379 146.125 116.379C154.775 116.379 165.328 107.5 165.328 107.5Z" fill="#363E49"/>
<path d="M146.125 168.104V198.276C146.111 203.031 142.246 206.882 137.475 206.897H111.525C106.754 206.882 102.889 203.031 102.875 198.276V168.104C102.875 168.104 113.861 177.931 120.175 183.104C120.781 183.621 121.343 184.052 121.819 184.44C123.386 185.69 125.614 185.69 127.182 184.44C127.657 184.052 128.22 183.621 128.825 183.104C135.14 177.931 146.125 168.104 146.125 168.104Z" fill="#363E49"/>
<path d="M128.825 183.104V206.897H120.175V183.104C120.78 183.621 121.343 184.052 121.818 184.44C123.386 185.69 125.614 185.69 127.181 184.44C127.657 184.052 128.219 183.621 128.825 183.104Z" fill="#2E3339"/>
</svg>
