<svg width="250" height="250" viewBox="0 0 250 250" fill="none" xmlns="http://www.w3.org/2000/svg">
<path d="M192.589 171.905L173 165.323H77.0002L57.4106 171.905C47.6103 175.198 41 184.444 41 194.857V241.935C41 246.389 44.5819 250 48.9999 250H200.999C205.418 250 208.999 246.389 208.999 241.935V194.857C208.999 184.443 202.389 175.198 192.589 171.905Z" fill="#363E49"/>
<path d="M152.996 125H96.9976V173.389H152.996V125Z" fill="#F5AF73"/>
<path d="M96.9986 144.887C105.109 150.151 114.721 153.226 124.998 153.226C135.275 153.226 144.887 150.151 152.998 144.887V125H96.9986V144.887Z" fill="#F5965F"/>
<path d="M176.998 64.5168H160.999V84.678H176.998V64.5168Z" fill="#2E3339"/>
<path d="M173 80.6453H169C164.582 80.6453 161 77.0344 161 72.5808V64.5164H89.0001V72.5808C89.0001 77.0349 85.4181 80.6453 81.0001 80.6453H77.0002C72.5817 80.6453 69.0002 84.2561 69.0002 88.7097V96.2541C69.0002 100.191 71.5674 103.88 75.393 104.672C77.5315 105.115 79.5146 104.643 81.1425 103.643C82.6005 126.811 101.649 145.161 125 145.161C148.351 145.161 167.4 126.811 168.858 103.643C170.486 104.643 172.469 105.115 174.607 104.672C178.433 103.88 181 100.191 181 96.2541V88.7097C181 84.2561 177.418 80.6453 173 80.6453Z" fill="#F5AF73"/>
<path d="M89.0006 64.5168H73.0017V84.678H89.0006V64.5168Z" fill="#2E3339"/>
<path d="M89.0001 64.5164V72.5808C89.0001 77.0349 85.4181 80.6453 81.0001 80.6453H77.0002C72.5817 80.6453 69.0002 84.2561 69.0002 88.7097V96.2541C69.0002 100.191 71.5674 103.88 75.393 104.672C77.5315 105.115 79.5146 104.643 81.1425 103.643C82.6005 126.811 101.65 145.161 125 145.161C127.75 145.161 130.432 144.886 133.041 144.4C112.546 140.619 97.0005 122.559 97.0005 100.807V76.6135C97.0005 74.3865 98.7912 72.5813 101 72.5813H161V64.5168H89.0001V64.5164Z" fill="#F5965F"/>
<path d="M172.998 48.3872L163.27 9.16308C161.935 3.77783 157.135 0 151.628 0H95.1632C89.297 0 84.291 4.27539 83.3266 10.1079L76.9977 48.3867L49.6097 60.6572C47.6359 61.5415 48.2617 64.5156 50.422 64.5156H199.573C201.733 64.5156 202.359 61.5415 200.385 60.6572L172.998 48.3872Z" fill="#FD7827"/>
<path d="M50.4218 64.5166H199.573C201.733 64.5166 202.359 61.5425 200.385 60.6582L172.997 48.3877H76.998L49.61 60.6582C47.6357 61.5425 48.262 64.5166 50.4218 64.5166Z" fill="#FD7827"/>
<path d="M79.6637 32.2583L76.9973 48.3872H172.997L168.997 32.2583H79.6637Z" fill="#FF651A"/>
<path d="M68.9997 168.011L57.4106 171.905C47.6103 175.198 41 184.443 41 194.857V241.935C41 246.389 44.5819 250 48.9999 250H68.9997V168.011Z" fill="#363E49"/>
<path d="M181 168.011L192.59 171.905C202.39 175.198 209 184.443 209 194.857V241.935C209 246.389 205.418 250 201 250H181V168.011Z" fill="#363E49"/>
<path d="M85.0001 165.323H77.0007L69.0002 168.01V225.806H85.0001V165.323Z" fill="#FD7827"/>
<path d="M165 165.323H173L181 168.01V225.806H165V165.323Z" fill="#FD7827"/>
<path d="M85.0021 233.871H85.0398" stroke="#464646" stroke-width="16" stroke-miterlimit="10" stroke-linecap="round" stroke-linejoin="round"/>
<path d="M181 250H69.0002V225.806C69.0002 221.352 72.5822 217.742 77.0002 217.742H173C177.419 217.742 181 221.353 181 225.806V250Z" fill="#FD7827"/>
<path d="M127 205.646H123C120.79 205.646 119 203.841 119 201.614V169.355H131V201.614C131 203.841 129.209 205.646 127 205.646Z" fill="#2E3339"/>
<path d="M95.0969 152.61L124.997 169.355L110.606 186.765C107.594 190.408 102.13 190.658 98.8028 187.304L76.9973 165.323L84.8112 154.821C87.2098 151.596 91.6021 150.652 95.0969 152.61Z" fill="#535861"/>
<path d="M154.9 152.61L124.999 169.355L139.391 186.765C142.402 190.408 147.867 190.658 151.194 187.304L172.999 165.323L165.185 154.821C162.787 151.596 158.395 150.652 154.9 152.61Z" fill="#535861"/>
<path d="M84.9991 239.92C88.3128 239.92 90.999 237.212 90.999 233.872C90.999 230.531 88.3128 227.823 84.9991 227.823C81.6854 227.823 78.9991 230.531 78.9991 233.872C78.9991 237.212 81.6854 239.92 84.9991 239.92Z" fill="#535861"/>
<path d="M164.998 239.92C168.312 239.92 170.998 237.212 170.998 233.872C170.998 230.531 168.312 227.823 164.998 227.823C161.685 227.823 158.999 230.531 158.999 233.872C158.999 237.212 161.685 239.92 164.998 239.92Z" fill="#535861"/>
</svg>
