<svg width="16" height="16" viewBox="0 0 16 16" fill="none" xmlns="http://www.w3.org/2000/svg">
<path fill-rule="evenodd" clip-rule="evenodd" d="M5.067 14.9983C6.2958 15.0103 7.51448 14.758 8.65188 14.2562C9.78928 13.7545 10.8226 13.0133 11.6915 12.076C12.5603 11.1387 13.2474 10.024 13.7124 8.79712C14.1775 7.57021 14.4112 6.25565 14.4 4.93022V4.4513C15.0211 3.94124 15.5614 3.32599 16 2.62947C15.4039 2.90897 14.7761 3.10228 14.133 3.20438C14.7941 2.75657 15.2953 2.08064 15.555 1.28655C14.9128 1.67226 14.2253 1.96253 13.511 2.14947C13.2101 1.78424 12.8403 1.49268 12.4264 1.29436C12.0124 1.09604 11.5639 0.995544 11.111 0.999632C10.2428 1.01383 9.41386 1.39215 8.79988 2.05442C8.1859 2.71668 7.83516 3.61082 7.822 4.5473C7.80181 4.80683 7.83213 5.06806 7.911 5.31422C6.60287 5.24612 5.32334 4.87723 4.15816 4.23226C2.99298 3.5873 1.96905 2.68115 1.155 1.57455C0.862467 2.12977 0.709418 2.75777 0.710999 3.39638C0.72273 3.97593 0.856918 4.54495 1.10334 5.06011C1.34976 5.57526 1.70192 6.02297 2.133 6.36913C1.59878 6.35749 1.07714 6.19215 0.622002 5.89021C0.621169 6.71144 0.887736 7.5069 1.37518 8.13775C1.86262 8.7686 2.53997 9.19477 3.289 9.34188C2.99953 9.42613 2.69921 9.45856 2.4 9.43788C2.18872 9.45318 1.97682 9.42048 1.778 9.34188C1.99533 10.0524 2.41082 10.6733 2.96767 11.1194C3.52452 11.5656 4.19555 11.8154 4.889 11.8346C3.72051 12.8191 2.28266 13.3585 0.799999 13.3685C0.530255 13.384 0.259975 13.3516 0 13.2725C1.47104 14.4247 3.24926 15.0304 5.067 14.9983Z" fill="#929395"/>
</svg>
